<mxfile host="app.diagrams.net" modified="2023-07-14T09:40:05.824Z" agent="Mozilla/5.0 (Macintosh; Intel Mac OS X 10_15_7) AppleWebKit/537.36 (KHTML, like Gecko) Chrome/114.0.0.0 Safari/537.36" version="21.6.2" etag="Nt0rpromu2cXm-3gYkEn" type="github">
  <diagram name="第 1 页" id="xNiKHTx9SwAWp_idYycJ">
    <mxGraphModel>
      <root>
        <mxCell id="0" />
        <mxCell id="1" parent="0" />
      </root>
    </mxGraphModel>
  </diagram>
</mxfile>
